<svg width="139" height="20" fill="none" xmlns="http://www.w3.org/2000/svg"><path fill-rule="evenodd" clip-rule="evenodd" d="M91.2953 15.8461c3.5004 0 5.973-2.5149 5.973-6.048 0-3.533-2.4726-6.0478-5.973-6.0478-1.0514.0002-2.0114.2813-2.8251.7838V0h-3.8711v15.4737h2.8976l.3693-.844c.9236.7716 2.1025 1.2164 3.4293 1.2164zm-26.6049 0c3.0209.0002 5.0259-1.5545 5.0259-3.9303 0-2.8341-2.3075-3.2429-4.0918-3.5589l-.0917-.0163-.0225-.004c-1.0696-.1907-1.927-.3436-1.927-.986 0-.527.4217-.8378 1.0495-.8378.7094 0 1.1974.3375 1.1974 1.0634h3.667c-.0447-2.3036-1.9209-3.8436-4.8158-3.8436-2.9129 0-4.8548 1.4712-4.8548 3.75 0 2.7572 2.3369 3.2892 4.0996 3.5749 1.0922.1806 1.9529.3676 1.9529 1.0233 0 .5876-.543.8798-1.1158.8798-.7425 0-1.3213-.3827-1.3213-1.2141h-3.769c.0358 2.4632 1.9189 4.0996 5.0174 4.0996zm-20.9846-4.2152c-.8 2.5946-3.0998 4.2156-5.952 4.2156-3.5472 0-6.1749-2.5926-6.1749-6.0657 0-3.4852 2.6067-6.048 6.1749-6.048 3.6644 0 6.2017 2.6144 6.2015 5.9493 0 .3425-.0299.6851-.0809 1.0366H35.433c.2562 1.304 1.0844 1.9784 2.3208 1.9784.9147 0 1.679-.4007 2.0554-1.0662h3.8966zM35.502 8.5503h4.5958c-.3436-1.1362-1.1625-1.7492-2.3442-1.7492-1.1413 0-1.9347.62-2.2516 1.7492zm15.5419 7.296c1.3204 0 2.4994-.4345 3.4303-1.1886l.3354.804h3.0272V4.0933l-2.9186-.0003-.4006.8792c-.9387-.7745-2.1347-1.2217-3.4737-1.2217-3.4762 0-5.961 2.506-5.961 6.0268 0 3.533 2.4848 6.069 5.961 6.069zm-2.0213-6.06c0 1.4846 1.0782 2.5929 2.5449 2.5929 1.4667 0 2.5448-1.1083 2.5448-2.5929 0-1.4756-1.0781-2.5838-2.5448-2.5838-1.4756 0-2.5449 1.1082-2.5449 2.5838zm29.6449 5.1815c-1.5324 3.4794-2.9411 4.7362-5.8764 4.7362h-1.3409v-3.3646h1.0769c1.4981 0 1.9499-.3901 2.4804-1.8049L70.3096 4.1053h4.2552l2.4126 6.2625 2.2482-6.2625h4.2067l-4.7648 10.8625zm9.5591-5.1697c0 1.4724 1.0782 2.5806 2.5449 2.5806 1.4577 0 2.5448-1.1082 2.5448-2.5806 0-1.4846-1.0781-2.5928-2.5448-2.5928s-2.5449 1.1082-2.5449 2.5928zm16.1434 6.0482c1.321 0 2.5-.4345 3.431-1.1886l.335.804h3.027V4.0933l-2.918-.0003-.401.8792c-.939-.7745-2.135-1.2217-3.474-1.2217-3.476 0-5.9608 2.506-5.9608 6.0268 0 3.533 2.4848 6.069 5.9608 6.069zm-2.021-6.06c0 1.4846 1.078 2.5929 2.545 2.5929 1.467 0 2.545-1.1083 2.545-2.5929 0-1.4756-1.078-2.5838-2.545-2.5838-1.476 0-2.545 1.1082-2.545 2.5838zm15.197 5.6874V9.403c0-1.447.703-2.2998 1.924-2.2998.985 0 1.483.6564 1.483 1.9795v6.391h3.915v-6.932c0-2.8964-1.734-4.7727-4.374-4.7727-1.47 0-2.732.5653-3.578 1.5085l-.538-1.1722h-2.747v11.3684h3.915zm13.749-4.8076v4.8076h-3.916V0h3.916v8.559l2.708-4.4537h4.397l-3.543 5.4183 3.902 5.9501h-4.617l-2.847-4.8076z" fill="#2D314D"/><path fill-rule="evenodd" clip-rule="evenodd" d="M10.8025 0L0 19.704h5.986L16.7886 0h-5.986z" fill="url(#paint0_linear)"/><path opacity=".5" fill-rule="evenodd" clip-rule="evenodd" d="M18.1709 0L7.3684 19.704h5.9861L24.157 0h-5.9861z" fill="url(#paint1_linear)"/><path opacity=".15" fill-rule="evenodd" clip-rule="evenodd" d="M25.5393 0L14.7368 19.704h5.9861L31.5254 0h-5.9861z" fill="url(#paint2_linear)"/><defs><linearGradient id="paint0_linear" x1="5.1327" y1="-7.4221" x2="-10.1946" y2="9.9128" gradientUnits="userSpaceOnUse"><stop stop-color="#33D35E"/><stop offset="1" stop-color="#2AB6D9"/></linearGradient><linearGradient id="paint1_linear" x1="12.5011" y1="-7.4221" x2="-2.8262" y2="9.9128" gradientUnits="userSpaceOnUse"><stop stop-color="#33D35E"/><stop offset="1" stop-color="#2AB6D9"/></linearGradient><linearGradient id="paint2_linear" x1="19.8695" y1="-7.4221" x2="4.5422" y2="9.9128" gradientUnits="userSpaceOnUse"><stop stop-color="#33D35E"/><stop offset="1" stop-color="#2AB6D9"/></linearGradient></defs></svg>